<?xml version="1.0" encoding="UTF-8"?>
<svg id="Layer_1" data-name="Layer 1" xmlns="http://www.w3.org/2000/svg" viewBox="0 0 77.7 77.52">
  <g id="B4Z11H">
    <g>
      <path fill="#ffffff" d="M77.7,0c-3.19,7.15-6.98,14.17-11.57,20.53-7.95,11.01-18.48,19.74-29.8,27.09l-6.23-6.23c6.7-10.16,14.37-19.82,23.96-27.41,7.2-5.7,15.33-10.13,23.64-13.98Z"/>
      <path fill="#ffffff" d="M.02,77.52c-.18-.23.97-1.8,1.16-2.17.99-1.83,1.93-3.89,2.58-5.88,2.6-8.01,1.9-17.51,9.89-22.78,12.33-8.14,25.7,6.67,15.87,18.31-6.86,8.12-19.51,10.76-29.5,12.51Z"/>
    </g>
  </g>
</svg>