<?xml version="1.0" encoding="UTF-8"?>
<svg id="Layer_1" data-name="Layer 1" xmlns="http://www.w3.org/2000/svg" viewBox="0 0 87.06 87.05">
  <g id="qyF3oT">
    <path d="M87.06,38.66v9.85c-1.22,5.45-6.94,4.6-11.26,5.3-.3.09-.42.4-.54.65-.64,1.31-.99,3.02-1.77,4.33,2.18,3.78,7.83,7.48,4.07,12.23-1.16,1.47-5.25,5.57-6.72,6.7-4.48,3.44-8.45-2.03-11.92-4.21l-4.79,1.93-.32.36c-.7,4.31.16,10.05-5.3,11.26h-9.85c-5.46-1.21-4.59-6.94-5.3-11.26-.09-.3-.4-.42-.65-.54-1.33-.65-3.01-1-4.33-1.77-3.7,2.15-7.46,7.76-12.14,4.16-1.4-1.08-5.7-5.39-6.78-6.8-3.44-4.48,2.03-8.45,4.21-11.92l-1.86-4.69c-.13-.26-.28-.38-.58-.44-4.24-.86-10.64.3-11.12-5.86-.15-1.91-.24-8.54.27-10.1,1.51-4.67,7.29-3.69,11.12-4.5.45-.21.72-1.61.94-2.12.28-.65,1.07-2.02,1.2-2.55.06-.24.1-.39-.08-.6-2.26-3.36-7.46-7.31-4.09-11.7,1.21-1.58,5.12-5.41,6.7-6.71,4.43-3.65,8.11,1.37,11.48,3.64.27.18.51.47.88.42.33-.05,2.15-1.02,2.68-1.25s1.91-.48,2.12-.94c.78-4.38-.11-10.91,5.94-11.38,1.95-.15,8.64-.24,10.23.31,4.54,1.56,3.54,7.09,4.3,10.81.05.24.11.4.34.5l4.79,1.93c3.48-2.18,7.44-7.65,11.92-4.21,1.58,1.21,5.41,5.12,6.71,6.7,3.81,4.62-1.93,8.53-4.07,12.23.78,1.31,1.14,3.03,1.77,4.33.12.25.24.56.54.65,4.32.71,10.05-.17,11.26,5.3ZM42.71,25.47c-14.35.75-22.25,17.21-13.69,28.87s27.07,8.85,31.73-4.89c4.08-12.05-5.35-24.64-18.04-23.98Z"/>
  </g>
</svg>