<?xml version="1.0" encoding="UTF-8"?>
<svg id="Layer_1" data-name="Layer 1" xmlns="http://www.w3.org/2000/svg" viewBox="0 0 77.26 84.28">
  <g id="t5vdv9">
    <g>
      <path d="M25.89.08c.95-.18,1.9-.08,2.63.6l35.66,35.66c2.25,2.57,2.43,6.22.27,8.92-8.09,7.2-15.37,16.54-23.53,23.53-5.44,4.66-13.54,4.71-19.03.09-5.6-6.39-13.17-12.13-18.56-18.57-4.58-5.48-4.36-13.48.18-18.92L27.22,7.66c0-.21-2.56-2.43-2.94-2.94-1.21-1.65-.49-4.25,1.6-4.64ZM57.37,38.08L31.36,11.97l-23.07,22.89c-.76.97-1.62,1.96-1.83,3.22h50.92Z"/>
      <path d="M65.24,51.91c1.03-.08,1.92.46,2.62,1.15,4.54,4.5,9.88,13.88,9.37,20.41-.73,9.35-11.92,14.15-19.2,8.18-8.92-7.32-2.1-20.31,3.85-27.2.9-1.05,1.88-2.41,3.36-2.53Z"/>
    </g>
  </g>
</svg>