<?xml version="1.0" encoding="UTF-8"?>
<svg id="Layer_1" data-name="Layer 1" xmlns="http://www.w3.org/2000/svg" viewBox="0 0 84.3 76.83">
  <g id="PQKnZg">
    <path d="M.04,52.61c-.05-.44-.05-1.37,0-1.81.23-1.9,1.39-3.64,2.63-5.03C17.66,30.97,32.31,15.79,47.5,1.21c2.55-1.54,5.68-1.63,8.3-.16,9.33,8.95,18.64,18.08,27.44,27.54,1.57,2.68,1.34,5.81-.33,8.37l-37.6,37.3c-1.83,1.54-3.79,2.24-6.17,2.39-3.76.24-9.43.26-13.18,0-2.49-.17-4.62-1.11-6.5-2.72-5.98-5.14-11.41-11.76-17.37-17.04-.99-1.13-1.87-2.76-2.06-4.28ZM27.61,31.87L7.78,51.7c4.21,4.12,8.34,8.34,12.59,12.43.86.83,4.13,4.19,4.85,4.53.3.14.56.28.91.25l13.56-.12c4.38-3.6,8.17-7.97,12.3-11.9l.23-.39-24.6-24.63Z"/>
  </g>
</svg>