<?xml version="1.0" encoding="UTF-8"?>
<svg id="Layer_1" data-name="Layer 1" xmlns="http://www.w3.org/2000/svg" viewBox="0 0 84.01 40.65">
  <g id="eOO92o">
    <path fill="#ffffff" d="M46.38,25.99l-.09,11.39c-1.63,4.92-8.15,4.1-8.61-1.18-.28-3.26.23-6.91,0-10.22-6.84-.65-13.29-2.82-19.44-5.79-.55,0-6.72,6.76-7.86,7.68-4.39,3.54-9.57-1.75-6.43-5.88.74-.97,6.49-6.12,6.41-6.57-1.72-1.56-3.67-2.83-5.41-4.36C2.24,8.68-2.58,4.62,1.71,1.11c3.6-2.94,5.81.65,8.14,2.72,19.49,17.3,42.87,18.57,62.94,1.27,1.48-1.28,4.24-4.56,5.96-4.89,2.94-.56,5.61,1.88,5.24,4.88-.26,2.04-3.42,4.72-4.96,6.07-2.47,2.15-5.16,4.04-7.86,5.89-.05.23.16.31.27.45,1.76,2.3,7.09,6.14,8.03,8.43,1.59,3.88-2.57,7.5-6.19,5.47-.31-.17-.98-.78-1.3-1.05-3.08-2.64-5.78-6.17-8.88-8.84-5.3,2.32-10.92,3.89-16.69,4.5Z"/>
  </g>
</svg>