<?xml version="1.0" encoding="UTF-8"?>
<svg id="Layer_1" data-name="Layer 1" xmlns="http://www.w3.org/2000/svg" viewBox="0 0 91.93 59.28">
  <g id="_7i8NOp" data-name="7i8NOp">
    <path  fill="#ffffff" d="M91.93,28.54v2.15c-.45,1.73-1.41,2.88-2.52,4.21-8.59,10.35-22.79,21.22-36.23,23.74-19.13,3.58-37.22-8.54-49.32-22.2-2.33-2.63-4.75-4.89-3.55-8.76.84-2.73,8.22-9.84,10.64-11.98C25.95,2.39,43.35-4.89,62.96,3.73c9.47,4.16,21.09,13.43,27.34,21.67.78,1.03,1.24,1.89,1.62,3.14ZM43.78,9.92c-11.99,1.11-20.04,13.34-16.93,24.9,3.69,13.72,20.82,19.33,31.77,10.05,14.98-12.69,4.79-36.77-14.84-34.95Z"/>
  </g>
</svg>