<?xml version="1.0" encoding="UTF-8"?>
<svg id="Layer_1" data-name="Layer 1" xmlns="http://www.w3.org/2000/svg" viewBox="0 0 118.27 117.95">
  <g id="zZFQ3z">
    <g>
      <path fill="#ffffffff" d="M58.1.03c2.58-.18,5.38.39,7.77,1.39l48.39,23.8c5.86,4.1,5.13,11.08-1.02,14.52-4.98,2.78-10.81,5.34-15.99,7.91-11.25,5.58-22.57,11.24-34.06,16.25-2.58.53-5.28.53-7.87.05-17.48-7.58-34.37-16.61-51.52-24.95C-.17,36.52-1.1,30.89,1.78,27.22c1.94-2.47,8.9-5.34,11.98-6.88C26.6,13.93,39.6,7.84,52.44,1.42c1.73-.69,3.79-1.26,5.66-1.39Z"/>
      <path fill="#ffffffff" d="M5.74,51.25c.94-.13,1.64.32,2.49.66,14.67,5.96,29.27,15.41,43.96,21.69,4.86,1.96,9.07,1.96,13.93,0l45.57-22.36c6.56.73,8.57,9.22,4.1,13.65-16.22,8.83-33.18,16.42-49.67,24.78-4.86,1.96-9.07,1.96-13.93,0-14.61-7.47-29.59-14.25-44.22-21.68C4.04,66,.06,64.33,0,59.1c-.04-3.02,2.56-7.42,5.74-7.85Z"/>
      <path fill="#ffffffff" d="M5.48,78.14c.6-.12,1.19-.13,1.76.14l45.2,22.21c4.58,1.83,8.85,1.84,13.43,0l45.57-22.35c1.63-.34,3.7,1.03,4.73,2.2,3.48,3.96,2.38,10.1-2.23,12.6l-48.07,23.62c-4.69,1.85-8.74,1.88-13.43,0-12.84-6.42-25.84-12.51-38.68-18.92-3.47-1.73-11.15-4.74-12.79-8.08-1.95-3.97-.14-10.45,4.51-11.42Z"/>
    </g>
  </g>
</svg>