<?xml version="1.0" encoding="UTF-8"?>
<svg id="Layer_1" data-name="Layer 1" xmlns="http://www.w3.org/2000/svg" viewBox="0 0 62.51 89.17">
  <path d="M34.92,64.83l1.5,9.37c.05.62-.32.97-.89,1.13l-8.06.05c-.97-.32-.86-1.02-.78-1.88.3-2.79,1.45-5.86,1.8-8.68l-.08-.3c-5-3.14-3.38-10.93,2.61-11.52,5.21-.48,8.94,5.51,5.64,9.86-.4.54-1.64,1.45-1.75,1.96Z"/>
  <path d="M62.48,44.45c-.08-2.04-3.06-5.26-5.05-5.26h-3.25l.03-17.54c-2.85-28.26-42.47-29.2-45.91-.73v18.27h-3.22C3.06,39.18-.08,42.46.03,44.61l-.03,38.98c.24,2.93,2.71,5.35,5.61,5.59l52.22-.16c2.52-.67,4.41-2.82,4.67-5.43l-.03-39.14ZM36.67,62.87c-.4.54-1.64,1.45-1.75,1.96l1.5,9.37c.05.62-.32.97-.89,1.13l-8.06.05c-.97-.32-.86-1.02-.78-1.88.3-2.79,1.45-5.86,1.8-8.68l-.08-.3c-5-3.14-3.38-10.93,2.61-11.52,5.21-.48,8.94,5.51,5.64,9.86ZM19.5,39.18v-17.54c1.24-12.09,18.08-13.89,22.67-3.04,1.99,4.65.35,14.51.83,19.96.03.24.05.43.11.62h-23.61Z"/>
</svg>