<?xml version="1.0" encoding="UTF-8"?>
<svg id="Layer_1" data-name="Layer 1" xmlns="http://www.w3.org/2000/svg" viewBox="0 0 89.3 89.17">
  <g id="gBC7kE">
    <path d="M45.93,39.19h38.31c1.99,0,4.97,3.2,5.03,5.26l.03,39.12c-.27,2.63-2.14,4.77-4.66,5.44l-52.21.16c-2.9-.25-5.38-2.67-5.6-5.6v-38.96c-.1-2.14,3.05-5.42,5.06-5.42h2.85v-17.55c-1.25-12.08-18.08-13.89-22.69-3.02-1.97,4.64-.33,14.49-.82,19.94-.09.95-.4,1.44-1.38,1.56-1.92.23-6.49.18-8.46,0-.56-.05-1.06-.12-1.33-.69l-.03-17.78c2.87-28.25,42.49-29.21,45.93-.73v18.28ZM57.83,53.02c-5.98.58-7.62,8.36-2.62,11.52l.1.28c-.34,2.83-1.5,5.89-1.8,8.68-.09.85-.2,1.57.78,1.87l8.04-.03c.57-.17.95-.52.88-1.15l-1.49-9.37c.09-.52,1.32-1.42,1.73-1.95,3.31-4.36-.43-10.36-5.63-9.85Z"/>
  </g>
</svg>