<?xml version="1.0" standalone="no"?>
<!DOCTYPE svg PUBLIC "-//W3C//DTD SVG 20010904//EN"
 "http://www.w3.org/TR/2001/REC-SVG-20010904/DTD/svg10.dtd">
<svg version="1.0" xmlns="http://www.w3.org/2000/svg"
 viewBox="0 0 300.000000 300.000000"
 preserveAspectRatio="xMidYMid meet">
<metadata>
Created by potrace 1.10, written by Peter Selinger 2001-2011
</metadata>
<g transform="translate(0.000000,300.000000) scale(0.100000,-0.100000)"
fill="#ffffff" stroke="none">
<path d="M675 2420 c-23 -38 182 -346 459 -690 170 -212 413 -488 420 -479 1
2 12 21 25 41 28 46 77 90 122 108 18 7 36 15 38 16 11 9 -196 242 -383 432
-302 308 -493 483 -600 551 -53 33 -71 37 -81 21z m177 -142 c119 -96 544
-515 707 -698 100 -112 130 -160 100 -160 -5 0 -34 -22 -63 -50 -29 -28 -55
-50 -58 -50 -13 0 -210 230 -425 494 -128 158 -373 511 -373 538 0 14 8 9 112
-74z"/>
<path d="M1719 1360 c-39 -21 -104 -88 -121 -126 -10 -22 -8 -29 23 -60 l35
-35 29 45 c29 45 91 97 132 110 23 7 23 7 -9 47 -36 44 -40 45 -89 19z m41
-45 c0 -8 -4 -15 -8 -15 -4 0 -28 -18 -52 -40 -24 -22 -48 -40 -52 -40 -16 0
22 59 54 84 37 29 58 33 58 11z"/>
<path d="M1805 1237 c-40 -23 -105 -98 -105 -122 0 -15 115 -105 134 -105 7 0
18 11 25 24 7 13 30 34 52 47 29 18 37 29 33 43 -11 36 -75 136 -87 136 -7 0
-30 -10 -52 -23z m68 -58 c9 -17 17 -38 17 -48 0 -18 -50 -61 -71 -61 -17 0
-69 40 -69 53 1 24 70 87 95 87 5 0 18 -14 28 -31z"/>
<path d="M1965 1065 c-22 -8 -41 -15 -42 -15 -2 0 -3 -28 -3 -62 0 -40 7 -78
19 -104 20 -45 82 -119 113 -135 18 -10 19 -9 7 13 -7 13 -29 48 -50 78 -54
80 -70 153 -39 184 16 16 102 11 138 -8 48 -25 88 -95 102 -177 7 -38 23 -91
36 -117 33 -66 32 -74 -13 -68 -75 11 -176 49 -180 67 -3 10 -13 21 -22 24
-24 7 -100 84 -119 120 -8 17 -18 55 -21 85 -6 51 -7 54 -19 32 -20 -36 -17
-124 7 -170 25 -48 88 -104 156 -137 71 -35 197 -65 272 -65 l65 0 -36 42
c-49 57 -73 110 -90 200 -8 43 -20 88 -27 100 -24 49 -83 99 -133 113 -60 18
-70 18 -121 0z"/>
</g>
</svg>
